<svg width="32" height="32" viewBox="4 0 30 32" fill="none" xmlns="http://www.w3.org/2000/svg">
<path d="M19.1156 28H12.8555C10.1739 28 7.99998 25.8261 7.99998 23.1445V9.44509C7.99998 6.76348 10.1739 4.5896 12.8555 4.5896H24.6906C27.3756 4.5896 29.5509 6.76884 29.5461 9.45389L29.529 18.8831C29.5241 21.5613 27.3517 23.7298 24.6735 23.7298H19.0809" stroke="black" style="stroke:black;stroke-opacity:1;" stroke-width="3.6763"/>
<g clip-path="url(#clip0_338_871)">
<path d="M24.0495 17.4492C23.9592 18.1358 23.622 18.766 23.101 19.2221C22.5799 19.6782 21.9107 19.9291 21.2182 19.9279C17.1951 19.9279 13.9219 16.6547 13.9219 12.6316C13.9207 11.9391 14.1716 11.2699 14.6277 10.7488C15.0839 10.2278 15.7141 9.89063 16.4006 9.80029C16.5742 9.77909 16.7501 9.81461 16.9018 9.90154C17.0536 9.98848 17.1732 10.1222 17.2427 10.2827L18.3129 12.6717V12.6777C18.3661 12.8006 18.3881 12.9347 18.3769 13.0681C18.3656 13.2016 18.3215 13.3301 18.2485 13.4423C18.2394 13.456 18.2298 13.4687 18.2196 13.4813L17.1647 14.7318C17.5442 15.503 18.3509 16.3026 19.1322 16.6831L20.3654 15.6337C20.3775 15.6236 20.3902 15.6141 20.4034 15.6054C20.5156 15.5306 20.6446 15.4849 20.7788 15.4725C20.913 15.4602 21.0482 15.4814 21.1721 15.5344L21.1787 15.5375L23.5656 16.6071C23.7264 16.6764 23.8604 16.7959 23.9476 16.9476C24.0349 17.0994 24.0706 17.2754 24.0495 17.4492Z" fill="black" style="fill:black;fill-opacity:1;"/>
</g>
<defs>
<clipPath id="clip0_338_871">
<rect width="13.9501" height="13.9501" fill="white" style="fill:white;fill-opacity:1;" transform="translate(8.93639 13.8643) rotate(-45)"/>
</clipPath>
</defs>
</svg>
